<svg width="643" height="675" viewBox="0 0 643 675" fill="none" xmlns="http://www.w3.org/2000/svg">
<g filter="url(#filter0_ddd_356_5139)">
<path d="M2 17.2002C2 8.36362 9.16344 1.2002 18 1.2002H624C632.837 1.2002 640 8.36364 640 17.2002V653.2C640 662.037 632.837 669.2 624 669.2H18C9.16344 669.2 2 662.037 2 653.2V17.2002Z" fill="white"/>
<path d="M18 1.7002H624C632.56 1.7002 639.5 8.63978 639.5 17.2002V653.2C639.5 661.761 632.56 668.7 624 668.7H18C9.43959 668.7 2.5 661.761 2.5 653.2V17.2002C2.5 8.63978 9.43959 1.7002 18 1.7002Z" stroke="#E0E0E0"/>
<path d="M38.644 54.3802C38.212 54.3802 37.804 54.3262 37.42 54.2182C37.036 54.1102 36.682 53.9602 36.358 53.7682C36.034 53.5642 35.746 53.3242 35.494 53.0482C35.242 52.7602 35.02 52.4422 34.828 52.0942L36.25 50.6362C36.466 50.9482 36.67 51.2062 36.862 51.4102C37.054 51.6142 37.234 51.7702 37.402 51.8782C37.582 51.9862 37.762 52.0642 37.942 52.1122C38.134 52.1602 38.326 52.1842 38.518 52.1842C38.902 52.1842 39.238 52.1002 39.526 51.9322C39.814 51.7522 40.036 51.5062 40.192 51.1942C40.36 50.8822 40.444 50.5282 40.444 50.1322V43.7062H38.122V41.6002H44.692V43.7062H42.748V50.3662C42.748 50.9542 42.646 51.4942 42.442 51.9862C42.238 52.4662 41.95 52.8862 41.578 53.2462C41.218 53.6062 40.786 53.8882 40.282 54.0922C39.79 54.2842 39.244 54.3802 38.644 54.3802ZM44.6415 54.2002L49.5555 41.6002H51.7515L56.6295 54.2002H54.1995L51.4995 47.0362C51.4395 46.8922 51.3555 46.6642 51.2475 46.3522C51.1515 46.0402 51.0435 45.7042 50.9235 45.3442C50.8035 44.9722 50.6955 44.6302 50.5995 44.3182C50.5035 43.9942 50.4315 43.7602 50.3835 43.6162L50.8335 43.5982C50.7615 43.8382 50.6775 44.1082 50.5815 44.4082C50.4855 44.7082 50.3835 45.0202 50.2755 45.3442C50.1675 45.6682 50.0595 45.9802 49.9515 46.2802C49.8555 46.5802 49.7655 46.8502 49.6815 47.0902L46.9815 54.2002H44.6415ZM46.8735 51.3202L47.6835 49.2862H53.4255L54.2895 51.3202H46.8735ZM58.6139 54.2002V41.6002H60.8279L65.4179 49.0702L64.1219 49.0522L68.7659 41.6002H70.8719V54.2002H68.5499V49.4662C68.5499 48.3862 68.5739 47.4142 68.6219 46.5502C68.6819 45.6862 68.7779 44.8282 68.9099 43.9762L69.1979 44.7502L65.2919 50.7802H64.1039L60.3239 44.8042L60.5759 43.9762C60.7079 44.7802 60.7979 45.6082 60.8459 46.4602C60.9059 47.3002 60.9359 48.3022 60.9359 49.4662V54.2002H58.6139ZM74.2584 54.2002V41.6002H79.6224C80.4504 41.6002 81.1464 41.7202 81.7104 41.9602C82.2864 42.2002 82.7184 42.5602 83.0064 43.0402C83.3064 43.5082 83.4564 44.0782 83.4564 44.7502C83.4564 45.4462 83.2704 46.0342 82.8984 46.5142C82.5264 46.9942 82.0044 47.3242 81.3324 47.5042L81.3144 47.1442C81.8784 47.2642 82.3704 47.4802 82.7904 47.7922C83.2104 48.0922 83.5344 48.4702 83.7624 48.9262C84.0024 49.3702 84.1224 49.8802 84.1224 50.4562C84.1224 51.0682 84.0204 51.6082 83.8164 52.0762C83.6244 52.5442 83.3364 52.9342 82.9524 53.2462C82.5684 53.5582 82.1124 53.7982 81.5844 53.9662C81.0564 54.1222 80.4624 54.2002 79.8024 54.2002H74.2584ZM76.5444 52.0942H79.6944C80.1384 52.0942 80.5104 52.0282 80.8104 51.8962C81.1224 51.7642 81.3564 51.5722 81.5124 51.3202C81.6804 51.0562 81.7644 50.7442 81.7644 50.3842C81.7644 50.0482 81.6744 49.7602 81.4944 49.5202C81.3264 49.2802 81.0804 49.1002 80.7564 48.9802C80.4324 48.8482 80.0484 48.7822 79.6044 48.7822H76.5444V52.0942ZM76.5444 46.7662H79.4064C79.7544 46.7662 80.0544 46.7002 80.3064 46.5682C80.5704 46.4362 80.7744 46.2562 80.9184 46.0282C81.0624 45.8002 81.1344 45.5362 81.1344 45.2362C81.1344 44.7562 80.9724 44.3842 80.6484 44.1202C80.3244 43.8442 79.8504 43.7062 79.2264 43.7062H76.5444V46.7662ZM93.364 50.3122C92.92 50.3122 92.512 50.2042 92.14 49.9882C91.768 49.7722 91.468 49.4782 91.24 49.1062C91.024 48.7342 90.916 48.3262 90.916 47.8822C90.916 47.4262 91.024 47.0122 91.24 46.6402C91.456 46.2682 91.75 45.9742 92.122 45.7582C92.494 45.5302 92.908 45.4162 93.364 45.4162C93.82 45.4162 94.234 45.5302 94.606 45.7582C94.978 45.9742 95.272 46.2682 95.488 46.6402C95.716 47.0122 95.83 47.4262 95.83 47.8822C95.83 48.3262 95.716 48.7342 95.488 49.1062C95.272 49.4782 94.978 49.7722 94.606 49.9882C94.234 50.2042 93.82 50.3122 93.364 50.3122ZM103.456 54.2002V41.6002H105.67L110.26 49.0702L108.964 49.0522L113.608 41.6002H115.714V54.2002H113.392V49.4662C113.392 48.3862 113.416 47.4142 113.464 46.5502C113.524 45.6862 113.62 44.8282 113.752 43.9762L114.04 44.7502L110.134 50.7802H108.946L105.166 44.8042L105.418 43.9762C105.55 44.7802 105.64 45.6082 105.688 46.4602C105.748 47.3002 105.778 48.3022 105.778 49.4662V54.2002H103.456ZM117.696 54.2002L122.61 41.6002H124.806L129.684 54.2002H127.254L124.554 47.0362C124.494 46.8922 124.41 46.6642 124.302 46.3522C124.206 46.0402 124.098 45.7042 123.978 45.3442C123.858 44.9722 123.75 44.6302 123.654 44.3182C123.558 43.9942 123.486 43.7602 123.438 43.6162L123.888 43.5982C123.816 43.8382 123.732 44.1082 123.636 44.4082C123.54 44.7082 123.438 45.0202 123.33 45.3442C123.222 45.6682 123.114 45.9802 123.006 46.2802C122.91 46.5802 122.82 46.8502 122.736 47.0902L120.036 54.2002H117.696ZM119.928 51.3202L120.738 49.2862H126.48L127.344 51.3202H119.928ZM133.292 54.2002V43.7602H129.692V41.6002H139.34V43.7602H135.632V54.2002H133.292ZM149.717 54.2002V41.6002H152.057V54.2002H149.717ZM141.635 54.2002V41.6002H143.975V54.2002H141.635ZM142.607 49.0162V46.8202H150.851V49.0162H142.607ZM155.452 54.2002V41.6002H163.696V43.7242H157.756V52.0762H163.768V54.2002H155.452ZM156.532 48.8002V46.7122H162.778V48.8002H156.532ZM166.702 54.2002V41.6002H168.916L173.506 49.0702L172.21 49.0522L176.854 41.6002H178.96V54.2002H176.638V49.4662C176.638 48.3862 176.662 47.4142 176.71 46.5502C176.77 45.6862 176.866 44.8282 176.998 43.9762L177.286 44.7502L173.38 50.7802H172.192L168.412 44.8042L168.664 43.9762C168.796 44.7802 168.886 45.6082 168.934 46.4602C168.994 47.3002 169.024 48.3022 169.024 49.4662V54.2002H166.702ZM180.942 54.2002L185.856 41.6002H188.052L192.93 54.2002H190.5L187.8 47.0362C187.74 46.8922 187.656 46.6642 187.548 46.3522C187.452 46.0402 187.344 45.7042 187.224 45.3442C187.104 44.9722 186.996 44.6302 186.9 44.3182C186.804 43.9942 186.732 43.7602 186.684 43.6162L187.134 43.5982C187.062 43.8382 186.978 44.1082 186.882 44.4082C186.786 44.7082 186.684 45.0202 186.576 45.3442C186.468 45.6682 186.36 45.9802 186.252 46.2802C186.156 46.5802 186.066 46.8502 185.982 47.0902L183.282 54.2002H180.942ZM183.174 51.3202L183.984 49.2862H189.726L190.59 51.3202H183.174ZM196.538 54.2002V43.7602H192.938V41.6002H202.586V43.7602H198.878V54.2002H196.538ZM204.503 54.2002V52.1302H206.573V43.6702H204.503V41.6002H210.983V43.6702H208.913V52.1302H210.983V54.2002H204.503ZM219.052 54.3802C218.14 54.3802 217.306 54.2242 216.55 53.9122C215.794 53.6002 215.14 53.1562 214.588 52.5802C214.036 51.9922 213.604 51.3022 213.292 50.5102C212.992 49.7062 212.842 48.8302 212.842 47.8822C212.842 46.9702 213.004 46.1242 213.328 45.3442C213.652 44.5642 214.102 43.8802 214.678 43.2922C215.254 42.7042 215.926 42.2482 216.694 41.9242C217.462 41.6002 218.296 41.4382 219.196 41.4382C219.808 41.4382 220.402 41.5282 220.978 41.7082C221.554 41.8882 222.082 42.1402 222.562 42.4642C223.042 42.7762 223.444 43.1422 223.768 43.5622L222.274 45.2002C221.962 44.8762 221.638 44.6062 221.302 44.3902C220.978 44.1622 220.636 43.9942 220.276 43.8862C219.928 43.7662 219.568 43.7062 219.196 43.7062C218.644 43.7062 218.122 43.8082 217.63 44.0122C217.15 44.2162 216.73 44.5042 216.37 44.8762C216.022 45.2482 215.746 45.6922 215.542 46.2082C215.338 46.7122 215.236 47.2762 215.236 47.9002C215.236 48.5362 215.332 49.1122 215.524 49.6282C215.728 50.1442 216.01 50.5882 216.37 50.9602C216.742 51.3322 217.18 51.6202 217.684 51.8242C218.2 52.0162 218.764 52.1122 219.376 52.1122C219.772 52.1122 220.156 52.0582 220.528 51.9502C220.9 51.8422 221.242 51.6922 221.554 51.5002C221.878 51.2962 222.172 51.0622 222.436 50.7982L223.588 52.6522C223.3 52.9762 222.916 53.2702 222.436 53.5342C221.956 53.7982 221.416 54.0082 220.816 54.1642C220.228 54.3082 219.64 54.3802 219.052 54.3802ZM230.006 54.3802C229.274 54.3802 228.602 54.2902 227.99 54.1102C227.378 53.9182 226.826 53.6362 226.334 53.2642C225.842 52.8922 225.404 52.4422 225.02 51.9142L226.55 50.1862C227.138 51.0022 227.714 51.5662 228.278 51.8782C228.842 52.1902 229.478 52.3462 230.186 52.3462C230.594 52.3462 230.966 52.2862 231.302 52.1662C231.638 52.0342 231.902 51.8602 232.094 51.6442C232.286 51.4162 232.382 51.1582 232.382 50.8702C232.382 50.6662 232.34 50.4802 232.256 50.3122C232.184 50.1322 232.07 49.9762 231.914 49.8442C231.758 49.7002 231.566 49.5682 231.338 49.4482C231.11 49.3282 230.852 49.2262 230.564 49.1422C230.276 49.0582 229.958 48.9802 229.61 48.9082C228.95 48.7762 228.374 48.6022 227.882 48.3862C227.39 48.1582 226.976 47.8822 226.64 47.5582C226.304 47.2222 226.058 46.8502 225.902 46.4422C225.746 46.0222 225.668 45.5482 225.668 45.0202C225.668 44.4922 225.782 44.0062 226.01 43.5622C226.25 43.1182 226.574 42.7342 226.982 42.4102C227.39 42.0862 227.864 41.8342 228.404 41.6542C228.944 41.4742 229.526 41.3842 230.15 41.3842C230.858 41.3842 231.488 41.4682 232.04 41.6362C232.604 41.8042 233.096 42.0562 233.516 42.3922C233.948 42.7162 234.302 43.1122 234.578 43.5802L233.03 45.1102C232.79 44.7382 232.52 44.4322 232.22 44.1922C231.92 43.9402 231.596 43.7542 231.248 43.6342C230.9 43.5022 230.534 43.4362 230.15 43.4362C229.718 43.4362 229.34 43.4962 229.016 43.6162C228.704 43.7362 228.458 43.9102 228.278 44.1382C228.098 44.3542 228.008 44.6182 228.008 44.9302C228.008 45.1702 228.062 45.3862 228.17 45.5782C228.278 45.7582 228.428 45.9202 228.62 46.0642C228.824 46.2082 229.082 46.3342 229.394 46.4422C229.706 46.5502 230.06 46.6462 230.456 46.7302C231.116 46.8622 231.71 47.0422 232.238 47.2702C232.766 47.4862 233.216 47.7502 233.588 48.0622C233.96 48.3622 234.242 48.7102 234.434 49.1062C234.626 49.4902 234.722 49.9222 234.722 50.4022C234.722 51.2302 234.524 51.9442 234.128 52.5442C233.744 53.1322 233.198 53.5882 232.49 53.9122C231.782 54.2242 230.954 54.3802 230.006 54.3802ZM244.009 50.3122C243.565 50.3122 243.157 50.2042 242.785 49.9882C242.413 49.7722 242.113 49.4782 241.885 49.1062C241.669 48.7342 241.561 48.3262 241.561 47.8822C241.561 47.4262 241.669 47.0122 241.885 46.6402C242.101 46.2682 242.395 45.9742 242.767 45.7582C243.139 45.5302 243.553 45.4162 244.009 45.4162C244.465 45.4162 244.879 45.5302 245.251 45.7582C245.623 45.9742 245.917 46.2682 246.133 46.6402C246.361 47.0122 246.475 47.4262 246.475 47.8822C246.475 48.3262 246.361 48.7342 246.133 49.1062C245.917 49.4782 245.623 49.7722 245.251 49.9882C244.879 50.2042 244.465 50.3122 244.009 50.3122ZM253.866 54.2002L253.272 52.7242L257.052 48.4942C257.268 48.2782 257.49 48.0322 257.718 47.7562C257.946 47.4682 258.162 47.1742 258.366 46.8742C258.582 46.5622 258.756 46.2622 258.888 45.9742C259.02 45.6742 259.086 45.3982 259.086 45.1462C259.086 44.8222 259.014 44.5402 258.87 44.3002C258.738 44.0602 258.546 43.8742 258.294 43.7422C258.042 43.6102 257.73 43.5442 257.358 43.5442C257.034 43.5442 256.716 43.6402 256.404 43.8322C256.104 44.0122 255.822 44.2762 255.558 44.6242C255.306 44.9602 255.096 45.3622 254.928 45.8302L253.164 44.7862C253.38 44.0902 253.704 43.4902 254.136 42.9862C254.58 42.4702 255.096 42.0742 255.684 41.7982C256.284 41.5222 256.932 41.3842 257.628 41.3842C258.348 41.3842 258.99 41.5342 259.554 41.8342C260.118 42.1342 260.562 42.5482 260.886 43.0762C261.222 43.6042 261.39 44.2222 261.39 44.9302C261.39 45.1942 261.36 45.4702 261.3 45.7582C261.24 46.0342 261.144 46.3282 261.012 46.6402C260.892 46.9402 260.73 47.2582 260.526 47.5942C260.322 47.9182 260.076 48.2602 259.788 48.6202C259.512 48.9802 259.194 49.3582 258.834 49.7542L255.972 52.8682L255.612 52.0402H261.84V54.2002H253.866ZM267.94 54.3802C266.92 54.3802 266.044 54.1222 265.312 53.6062C264.592 53.0782 264.034 52.3342 263.638 51.3742C263.254 50.4022 263.062 49.2442 263.062 47.9002C263.062 46.5562 263.254 45.4042 263.638 44.4442C264.034 43.4722 264.592 42.7282 265.312 42.2122C266.044 41.6842 266.92 41.4202 267.94 41.4202C268.96 41.4202 269.836 41.6842 270.568 42.2122C271.3 42.7282 271.858 43.4722 272.242 44.4442C272.638 45.4042 272.836 46.5562 272.836 47.9002C272.836 49.2442 272.638 50.4022 272.242 51.3742C271.858 52.3342 271.3 53.0782 270.568 53.6062C269.836 54.1222 268.96 54.3802 267.94 54.3802ZM267.94 52.3282C268.78 52.3282 269.428 51.9442 269.884 51.1762C270.352 50.3962 270.586 49.3042 270.586 47.9002C270.586 46.4842 270.352 45.3862 269.884 44.6062C269.428 43.8262 268.78 43.4362 267.94 43.4362C267.1 43.4362 266.446 43.8262 265.978 44.6062C265.522 45.3862 265.294 46.4842 265.294 47.9002C265.294 49.3042 265.522 50.3962 265.978 51.1762C266.446 51.9442 267.1 52.3282 267.94 52.3282ZM275.083 54.2002L274.489 52.7242L278.269 48.4942C278.485 48.2782 278.707 48.0322 278.935 47.7562C279.163 47.4682 279.379 47.1742 279.583 46.8742C279.799 46.5622 279.973 46.2622 280.105 45.9742C280.237 45.6742 280.303 45.3982 280.303 45.1462C280.303 44.8222 280.231 44.5402 280.087 44.3002C279.955 44.0602 279.763 43.8742 279.511 43.7422C279.259 43.6102 278.947 43.5442 278.575 43.5442C278.251 43.5442 277.933 43.6402 277.621 43.8322C277.321 44.0122 277.039 44.2762 276.775 44.6242C276.523 44.9602 276.313 45.3622 276.145 45.8302L274.381 44.7862C274.597 44.0902 274.921 43.4902 275.353 42.9862C275.797 42.4702 276.313 42.0742 276.901 41.7982C277.501 41.5222 278.149 41.3842 278.845 41.3842C279.565 41.3842 280.207 41.5342 280.771 41.8342C281.335 42.1342 281.779 42.5482 282.103 43.0762C282.439 43.6042 282.607 44.2222 282.607 44.9302C282.607 45.1942 282.577 45.4702 282.517 45.7582C282.457 46.0342 282.361 46.3282 282.229 46.6402C282.109 46.9402 281.947 47.2582 281.743 47.5942C281.539 47.9182 281.293 48.2602 281.005 48.6202C280.729 48.9802 280.411 49.3582 280.051 49.7542L277.189 52.8682L276.829 52.0402H283.057V54.2002H275.083ZM287.356 53.3182V43.0942L288.022 43.9582L285.466 45.2542L284.944 43.2022L288.382 41.4202H289.678V53.3182H287.356ZM285.25 54.2002V52.0402H291.838V54.2002H285.25Z" fill="#828282"/>
<path d="M520 41.2002C520 36.7819 523.582 33.2002 528 33.2002H600C604.418 33.2002 608 36.7819 608 41.2002V64.2002C608 68.6185 604.418 72.2002 600 72.2002H528C523.582 72.2002 520 68.6185 520 64.2002V41.2002Z" fill="#28A745" fill-opacity="0.15"/>
<path d="M531.186 62.0342L533.04 60.0902H537.486L539.232 62.0342H531.186ZM530.646 53.1962L532.59 55.0682V59.4782L530.646 61.2422V53.1962ZM539.808 61.2422L537.864 59.3882V54.9602L539.808 53.1962V61.2422ZM531.168 43.7462H539.214L537.432 45.6902H533.022L531.168 43.7462ZM530.592 52.5662V44.5202L532.536 46.2662V50.7302L530.592 52.5662ZM539.754 44.5202V52.5662L537.81 50.8202V46.3742L539.754 44.5202ZM545.582 62.0342L547.436 60.0902H551.882L553.628 62.0342H545.582ZM545.042 53.1962L546.986 55.0682V59.4782L545.042 61.2422V53.1962ZM554.204 61.2422L552.26 59.3882V54.9602L554.204 53.1962V61.2422ZM545.564 43.7462H553.61L551.828 45.6902H547.418L545.564 43.7462ZM544.988 52.5662V44.5202L546.932 46.2662V50.7302L544.988 52.5662ZM554.15 44.5202V52.5662L552.206 50.8202V46.3742L554.15 44.5202ZM562.859 53.0162H565.127V55.2662H562.859V53.0162ZM562.859 47.6702H565.127V49.9742H562.859V47.6702ZM582.997 61.2422L581.053 59.3882V54.9602L582.997 53.1962V61.2422ZM575.923 53.8442C575.503 53.5082 575.077 53.1782 574.645 52.8542L575.923 51.9002H580.837L582.097 52.8542L580.837 53.8442H575.923ZM573.781 52.5662V44.5202L575.725 46.2662V50.7302L573.781 52.5662ZM582.943 44.5202V52.5662L580.999 50.8202V46.3742L582.943 44.5202ZM588.772 62.0342L590.626 60.0902H595.072L596.818 62.0342H588.772ZM597.394 61.2422L595.45 59.3882V54.9602L597.394 53.1962V61.2422ZM590.32 53.8442C589.9 53.5082 589.474 53.1782 589.042 52.8542L590.32 51.9002H595.234L596.494 52.8542L595.234 53.8442H590.32ZM588.754 43.7462H596.8L595.018 45.6902H590.608L588.754 43.7462ZM588.178 52.5662V44.5202L590.122 46.2662V50.7302L588.178 52.5662Z" fill="#28A745"/>
<path d="M78.044 158.2V154.98H81.264V141.82H78.044V138.6H88.124V141.82H84.904V154.98H88.124V158.2H78.044ZM93.4967 158.2V142.128C93.4967 141.232 93.6927 140.439 94.0847 139.748C94.4767 139.039 95.0181 138.488 95.7087 138.096C96.3994 137.686 97.2021 137.48 98.1167 137.48C98.7514 137.48 99.3394 137.592 99.8807 137.816C100.422 138.022 100.879 138.311 101.253 138.684L100.189 141.288C99.9461 141.083 99.6847 140.924 99.4047 140.812C99.1434 140.7 98.8914 140.644 98.6487 140.644C98.2754 140.644 97.9581 140.71 97.6967 140.84C97.4541 140.952 97.2674 141.13 97.1367 141.372C97.0247 141.615 96.9687 141.904 96.9687 142.24V158.2H95.2327C94.8967 158.2 94.5794 158.2 94.2807 158.2C94.0007 158.2 93.7394 158.2 93.4967 158.2ZM91.2007 146.776V143.752H100.301V146.776H91.2007ZM111.403 158.2V137.48H114.875V158.2H111.403ZM125.397 158.48C123.922 158.48 122.606 158.154 121.449 157.5C120.291 156.828 119.377 155.914 118.705 154.756C118.033 153.599 117.697 152.283 117.697 150.808C117.697 149.334 118.033 148.018 118.705 146.86C119.377 145.703 120.291 144.798 121.449 144.144C122.606 143.472 123.922 143.136 125.397 143.136C126.853 143.136 128.159 143.472 129.317 144.144C130.474 144.798 131.379 145.703 132.033 146.86C132.705 148.018 133.041 149.334 133.041 150.808C133.041 152.283 132.705 153.599 132.033 154.756C131.379 155.914 130.474 156.828 129.317 157.5C128.159 158.154 126.853 158.48 125.397 158.48ZM125.397 155.428C126.199 155.428 126.909 155.223 127.525 154.812C128.159 154.402 128.654 153.851 129.009 153.16C129.382 152.47 129.559 151.686 129.541 150.808C129.559 149.912 129.382 149.119 129.009 148.428C128.654 147.738 128.159 147.196 127.525 146.804C126.909 146.394 126.199 146.188 125.397 146.188C124.594 146.188 123.866 146.394 123.213 146.804C122.578 147.196 122.083 147.747 121.729 148.456C121.374 149.147 121.197 149.931 121.197 150.808C121.197 151.686 121.374 152.47 121.729 153.16C122.083 153.851 122.578 154.402 123.213 154.812C123.866 155.223 124.594 155.428 125.397 155.428ZM142.757 164.64C141.656 164.64 140.555 164.472 139.453 164.136C138.371 163.8 137.493 163.362 136.821 162.82L138.053 160.272C138.445 160.552 138.884 160.795 139.369 161C139.855 161.206 140.368 161.364 140.909 161.476C141.469 161.588 142.02 161.644 142.561 161.644C143.551 161.644 144.372 161.486 145.025 161.168C145.697 160.87 146.201 160.403 146.537 159.768C146.873 159.152 147.041 158.378 147.041 157.444V154.728L147.545 154.924C147.433 155.503 147.125 156.054 146.621 156.576C146.117 157.099 145.483 157.528 144.717 157.864C143.952 158.182 143.168 158.34 142.365 158.34C140.965 158.34 139.724 158.014 138.641 157.36C137.577 156.707 136.728 155.82 136.093 154.7C135.477 153.562 135.169 152.255 135.169 150.78C135.169 149.306 135.477 147.999 136.093 146.86C136.709 145.703 137.549 144.798 138.613 144.144C139.696 143.472 140.909 143.136 142.253 143.136C142.813 143.136 143.355 143.202 143.877 143.332C144.4 143.463 144.876 143.65 145.305 143.892C145.753 144.135 146.155 144.406 146.509 144.704C146.864 145.003 147.153 145.32 147.377 145.656C147.601 145.992 147.741 146.319 147.797 146.636L147.069 146.86L147.125 143.444H150.513V157.192C150.513 158.387 150.336 159.442 149.981 160.356C149.627 161.271 149.113 162.046 148.441 162.68C147.769 163.334 146.957 163.819 146.005 164.136C145.053 164.472 143.971 164.64 142.757 164.64ZM142.897 155.4C143.737 155.4 144.475 155.204 145.109 154.812C145.763 154.42 146.267 153.879 146.621 153.188C146.976 152.498 147.153 151.704 147.153 150.808C147.153 149.894 146.967 149.091 146.593 148.4C146.239 147.691 145.744 147.14 145.109 146.748C144.475 146.356 143.737 146.16 142.897 146.16C142.057 146.16 141.32 146.366 140.685 146.776C140.051 147.168 139.547 147.719 139.173 148.428C138.819 149.119 138.641 149.912 138.641 150.808C138.641 151.686 138.819 152.479 139.173 153.188C139.547 153.879 140.051 154.42 140.685 154.812C141.32 155.204 142.057 155.4 142.897 155.4ZM155.896 163.856V155.988L156.176 156.716L154.664 157.668L153.572 155.652L156.512 153.916H158.388V163.856H157.156C156.951 163.856 156.746 163.856 156.54 163.856C156.335 163.856 156.12 163.856 155.896 163.856ZM165.786 163.8C164.927 163.8 164.162 163.567 163.49 163.1C162.836 162.652 162.314 162.036 161.922 161.252C161.53 160.468 161.334 159.572 161.334 158.564C161.334 157.538 161.52 156.632 161.894 155.848C162.267 155.046 162.79 154.42 163.462 153.972C164.134 153.524 164.908 153.3 165.786 153.3C166.663 153.3 167.428 153.524 168.082 153.972C168.754 154.42 169.267 155.046 169.622 155.848C169.995 156.632 170.182 157.538 170.182 158.564C170.182 159.572 169.995 160.468 169.622 161.252C169.248 162.036 168.726 162.652 168.054 163.1C167.382 163.567 166.626 163.8 165.786 163.8ZM165.786 161.448C166.159 161.448 166.476 161.327 166.738 161.084C167.018 160.86 167.232 160.524 167.382 160.076C167.531 159.647 167.606 159.143 167.606 158.564C167.606 157.687 167.447 156.987 167.13 156.464C166.812 155.923 166.364 155.652 165.786 155.652C165.226 155.652 164.768 155.923 164.414 156.464C164.078 156.987 163.91 157.687 163.91 158.564C163.91 159.442 164.078 160.142 164.414 160.664C164.75 161.187 165.207 161.448 165.786 161.448ZM179.194 163.408C176.917 161.99 175.181 160.216 173.986 158.088C172.792 155.96 172.194 153.59 172.194 150.976C172.194 148.382 172.792 146.02 173.986 143.892C175.2 141.746 176.945 139.963 179.222 138.544L181.098 140.504C179.269 141.774 177.878 143.314 176.926 145.124C175.993 146.935 175.526 148.886 175.526 150.976C175.526 153.067 175.993 155.018 176.926 156.828C177.878 158.639 179.269 160.179 181.098 161.448L179.194 163.408ZM183.815 158.2L182.891 155.904L188.771 149.324C189.107 148.988 189.452 148.606 189.807 148.176C190.162 147.728 190.498 147.271 190.815 146.804C191.151 146.319 191.422 145.852 191.627 145.404C191.832 144.938 191.935 144.508 191.935 144.116C191.935 143.612 191.823 143.174 191.599 142.8C191.394 142.427 191.095 142.138 190.703 141.932C190.311 141.727 189.826 141.624 189.247 141.624C188.743 141.624 188.248 141.774 187.763 142.072C187.296 142.352 186.858 142.763 186.447 143.304C186.055 143.827 185.728 144.452 185.467 145.18L182.723 143.556C183.059 142.474 183.563 141.54 184.235 140.756C184.926 139.954 185.728 139.338 186.643 138.908C187.576 138.479 188.584 138.264 189.667 138.264C190.787 138.264 191.786 138.498 192.663 138.964C193.54 139.431 194.231 140.075 194.735 140.896C195.258 141.718 195.519 142.679 195.519 143.78C195.519 144.191 195.472 144.62 195.379 145.068C195.286 145.498 195.136 145.955 194.931 146.44C194.744 146.907 194.492 147.402 194.175 147.924C193.858 148.428 193.475 148.96 193.027 149.52C192.598 150.08 192.103 150.668 191.543 151.284L187.091 156.128L186.531 154.84H196.219V158.2H183.815ZM199.211 163.408L197.335 161.448C199.164 160.179 200.555 158.639 201.507 156.828C202.459 155.018 202.935 153.067 202.935 150.976C202.935 148.886 202.459 146.935 201.507 145.124C200.555 143.314 199.164 141.774 197.335 140.504L199.239 138.544C201.516 139.963 203.252 141.736 204.447 143.864C205.641 145.992 206.239 148.363 206.239 150.976C206.239 153.571 205.632 155.942 204.419 158.088C203.224 160.216 201.488 161.99 199.211 163.408ZM217.158 148.988V146.076H230.43V148.988H217.158ZM217.158 154.56V151.676H230.43V154.56H217.158ZM249.047 158.48C247.46 158.48 246.097 158.079 244.959 157.276C243.839 156.455 242.971 155.298 242.355 153.804C241.757 152.292 241.459 150.491 241.459 148.4C241.459 146.31 241.757 144.518 242.355 143.024C242.971 141.512 243.839 140.355 244.959 139.552C246.097 138.731 247.46 138.32 249.047 138.32C250.633 138.32 251.996 138.731 253.135 139.552C254.273 140.355 255.141 141.512 255.739 143.024C256.355 144.518 256.663 146.31 256.663 148.4C256.663 150.491 256.355 152.292 255.739 153.804C255.141 155.298 254.273 156.455 253.135 157.276C251.996 158.079 250.633 158.48 249.047 158.48ZM249.047 155.288C250.353 155.288 251.361 154.691 252.071 153.496C252.799 152.283 253.163 150.584 253.163 148.4C253.163 146.198 252.799 144.49 252.071 143.276C251.361 142.063 250.353 141.456 249.047 141.456C247.74 141.456 246.723 142.063 245.995 143.276C245.285 144.49 244.931 146.198 244.931 148.4C244.931 150.584 245.285 152.283 245.995 153.496C246.723 154.691 247.74 155.288 249.047 155.288ZM261.223 158.508C260.551 158.508 260.028 158.312 259.655 157.92C259.3 157.528 259.123 156.978 259.123 156.268C259.123 155.615 259.309 155.083 259.683 154.672C260.075 154.243 260.588 154.028 261.223 154.028C261.895 154.028 262.408 154.224 262.763 154.616C263.136 154.99 263.323 155.54 263.323 156.268C263.323 156.922 263.127 157.463 262.735 157.892C262.361 158.303 261.857 158.508 261.223 158.508ZM271.954 158.48C270.499 158.48 269.229 158.163 268.147 157.528C267.064 156.875 266.065 155.774 265.151 154.224L267.895 152.488C268.324 153.179 268.763 153.739 269.211 154.168C269.677 154.579 270.144 154.887 270.611 155.092C271.096 155.279 271.609 155.372 272.151 155.372C272.767 155.372 273.327 155.223 273.831 154.924C274.353 154.626 274.764 154.215 275.063 153.692C275.38 153.17 275.539 152.572 275.539 151.9C275.539 151.228 275.408 150.659 275.147 150.192C274.904 149.726 274.54 149.371 274.055 149.128C273.588 148.867 273.019 148.736 272.347 148.736C272.048 148.736 271.731 148.774 271.395 148.848C271.059 148.904 270.704 148.998 270.331 149.128C269.957 149.24 269.547 149.38 269.099 149.548L268.203 147.168L273.775 141.008L274.615 141.82L266.355 141.764V138.544H277.863L278.535 139.888L272.095 146.916L271.255 145.992C271.404 145.918 271.647 145.852 271.983 145.796C272.337 145.722 272.645 145.684 272.907 145.684C273.728 145.684 274.512 145.843 275.259 146.16C276.005 146.459 276.649 146.888 277.191 147.448C277.751 148.008 278.189 148.662 278.507 149.408C278.824 150.136 278.983 150.93 278.983 151.788C278.983 153.076 278.665 154.224 278.031 155.232C277.415 156.222 276.575 157.015 275.511 157.612C274.447 158.191 273.261 158.48 271.954 158.48ZM288.804 158.48C287.218 158.48 285.855 158.079 284.716 157.276C283.596 156.455 282.728 155.298 282.112 153.804C281.515 152.292 281.216 150.491 281.216 148.4C281.216 146.31 281.515 144.518 282.112 143.024C282.728 141.512 283.596 140.355 284.716 139.552C285.855 138.731 287.218 138.32 288.804 138.32C290.391 138.32 291.754 138.731 292.892 139.552C294.031 140.355 294.899 141.512 295.496 143.024C296.112 144.518 296.42 146.31 296.42 148.4C296.42 150.491 296.112 152.292 295.496 153.804C294.899 155.298 294.031 156.455 292.892 157.276C291.754 158.079 290.391 158.48 288.804 158.48ZM288.804 155.288C290.111 155.288 291.119 154.691 291.828 153.496C292.556 152.283 292.92 150.584 292.92 148.4C292.92 146.198 292.556 144.49 291.828 143.276C291.119 142.063 290.111 141.456 288.804 141.456C287.498 141.456 286.48 142.063 285.752 143.276C285.043 144.49 284.688 146.198 284.688 148.4C284.688 150.584 285.043 152.283 285.752 153.496C286.48 154.691 287.498 155.288 288.804 155.288ZM303.668 156.828V140.924L304.704 142.268L300.728 144.284L299.916 141.092L305.264 138.32H307.28V156.828H303.668ZM300.392 158.2V154.84H310.64V158.2H300.392ZM321.097 158.48C319.511 158.48 318.148 158.079 317.009 157.276C315.889 156.455 315.021 155.298 314.405 153.804C313.808 152.292 313.509 150.491 313.509 148.4C313.509 146.31 313.808 144.518 314.405 143.024C315.021 141.512 315.889 140.355 317.009 139.552C318.148 138.731 319.511 138.32 321.097 138.32C322.684 138.32 324.047 138.731 325.185 139.552C326.324 140.355 327.192 141.512 327.789 143.024C328.405 144.518 328.713 146.31 328.713 148.4C328.713 150.491 328.405 152.292 327.789 153.804C327.192 155.298 326.324 156.455 325.185 157.276C324.047 158.079 322.684 158.48 321.097 158.48ZM321.097 155.288C322.404 155.288 323.412 154.691 324.121 153.496C324.849 152.283 325.213 150.584 325.213 148.4C325.213 146.198 324.849 144.49 324.121 143.276C323.412 142.063 322.404 141.456 321.097 141.456C319.791 141.456 318.773 142.063 318.045 143.276C317.336 144.49 316.981 146.198 316.981 148.4C316.981 150.584 317.336 152.283 318.045 153.496C318.773 154.691 319.791 155.288 321.097 155.288ZM332.377 163.408L331.229 162.036C331.92 161.663 332.471 161.224 332.881 160.72C333.311 160.235 333.525 159.815 333.525 159.46C333.525 159.274 333.479 159.087 333.385 158.9C333.311 158.732 333.115 158.499 332.797 158.2C332.405 157.846 332.144 157.538 332.013 157.276C331.883 157.015 331.817 156.726 331.817 156.408C331.817 155.923 331.995 155.531 332.349 155.232C332.704 154.934 333.161 154.784 333.721 154.784C334.225 154.784 334.673 154.924 335.065 155.204C335.476 155.484 335.793 155.876 336.017 156.38C336.241 156.866 336.353 157.435 336.353 158.088C336.353 158.667 336.251 159.227 336.045 159.768C335.859 160.328 335.579 160.842 335.205 161.308C334.851 161.775 334.431 162.186 333.945 162.54C333.479 162.914 332.956 163.203 332.377 163.408ZM351.343 158.2L346.387 143.444L349.915 143.416L353.219 153.944L352.603 153.888L356.187 145.656H358.259L361.927 153.888L361.199 153.972L364.531 143.444H368.059L363.075 158.2H360.611L356.831 149.352L357.363 149.408L353.779 158.2H351.343ZM370.594 158.2V137.48H374.01V146.468L373.366 146.804C373.553 146.132 373.917 145.526 374.458 144.984C374.999 144.424 375.643 143.976 376.39 143.64C377.137 143.304 377.902 143.136 378.686 143.136C379.806 143.136 380.739 143.36 381.486 143.808C382.251 144.256 382.821 144.928 383.194 145.824C383.586 146.72 383.782 147.84 383.782 149.184V158.2H380.338V149.436C380.338 148.69 380.235 148.074 380.03 147.588C379.825 147.084 379.507 146.72 379.078 146.496C378.649 146.254 378.126 146.142 377.51 146.16C377.006 146.16 376.539 146.244 376.11 146.412C375.699 146.562 375.335 146.786 375.018 147.084C374.719 147.364 374.477 147.691 374.29 148.064C374.122 148.438 374.038 148.848 374.038 149.296V158.2H372.33C371.994 158.2 371.677 158.2 371.378 158.2C371.098 158.2 370.837 158.2 370.594 158.2ZM393.229 158.48C392.015 158.48 390.914 158.144 389.925 157.472C388.935 156.8 388.142 155.886 387.545 154.728C386.947 153.571 386.649 152.255 386.649 150.78C386.649 149.306 386.947 147.99 387.545 146.832C388.142 145.675 388.954 144.77 389.981 144.116C391.007 143.463 392.165 143.136 393.453 143.136C394.199 143.136 394.881 143.248 395.497 143.472C396.113 143.678 396.654 143.976 397.121 144.368C397.587 144.76 397.97 145.208 398.269 145.712C398.586 146.216 398.801 146.758 398.913 147.336L398.157 147.14V143.444H401.629V158.2H398.129V154.672L398.941 154.532C398.81 155.036 398.567 155.531 398.213 156.016C397.877 156.483 397.447 156.903 396.925 157.276C396.421 157.631 395.851 157.92 395.217 158.144C394.601 158.368 393.938 158.48 393.229 158.48ZM394.181 155.428C394.983 155.428 395.693 155.232 396.309 154.84C396.925 154.448 397.401 153.907 397.737 153.216C398.091 152.507 398.269 151.695 398.269 150.78C398.269 149.884 398.091 149.091 397.737 148.4C397.401 147.71 396.925 147.168 396.309 146.776C395.693 146.384 394.983 146.188 394.181 146.188C393.378 146.188 392.669 146.384 392.053 146.776C391.455 147.168 390.989 147.71 390.653 148.4C390.317 149.091 390.149 149.884 390.149 150.78C390.149 151.695 390.317 152.507 390.653 153.216C390.989 153.907 391.455 154.448 392.053 154.84C392.669 155.232 393.378 155.428 394.181 155.428ZM407.217 158.2V139.692H410.661V158.2H407.217ZM404.305 146.636V143.444H413.881V146.636H404.305ZM425.127 158.2V143.444H428.571V158.2H425.127ZM426.807 140.308C426.116 140.308 425.575 140.14 425.183 139.804C424.809 139.45 424.623 138.955 424.623 138.32C424.623 137.723 424.819 137.238 425.211 136.864C425.603 136.491 426.135 136.304 426.807 136.304C427.516 136.304 428.057 136.482 428.431 136.836C428.823 137.172 429.019 137.667 429.019 138.32C429.019 138.899 428.823 139.375 428.431 139.748C428.039 140.122 427.497 140.308 426.807 140.308ZM437.866 158.48C436.559 158.48 435.383 158.266 434.338 157.836C433.311 157.388 432.471 156.754 431.818 155.932L434.058 154C434.618 154.635 435.243 155.092 435.934 155.372C436.625 155.652 437.353 155.792 438.118 155.792C438.435 155.792 438.715 155.755 438.958 155.68C439.219 155.606 439.443 155.494 439.63 155.344C439.817 155.195 439.957 155.027 440.05 154.84C440.162 154.635 440.218 154.411 440.218 154.168C440.218 153.72 440.05 153.366 439.714 153.104C439.527 152.974 439.229 152.834 438.818 152.684C438.426 152.535 437.913 152.386 437.278 152.236C436.27 151.975 435.43 151.676 434.758 151.34C434.086 150.986 433.563 150.594 433.19 150.164C432.873 149.81 432.63 149.408 432.462 148.96C432.313 148.512 432.238 148.027 432.238 147.504C432.238 146.851 432.378 146.263 432.658 145.74C432.957 145.199 433.358 144.732 433.862 144.34C434.366 143.948 434.954 143.65 435.626 143.444C436.298 143.239 436.998 143.136 437.726 143.136C438.473 143.136 439.191 143.23 439.882 143.416C440.591 143.603 441.245 143.874 441.842 144.228C442.458 144.564 442.981 144.975 443.41 145.46L441.506 147.56C441.151 147.224 440.759 146.926 440.33 146.664C439.919 146.403 439.499 146.198 439.07 146.048C438.641 145.88 438.239 145.796 437.866 145.796C437.511 145.796 437.194 145.834 436.914 145.908C436.634 145.964 436.401 146.058 436.214 146.188C436.027 146.319 435.878 146.487 435.766 146.692C435.673 146.879 435.626 147.103 435.626 147.364C435.645 147.588 435.701 147.803 435.794 148.008C435.906 148.195 436.055 148.354 436.242 148.484C436.447 148.615 436.755 148.764 437.166 148.932C437.577 149.1 438.109 149.259 438.762 149.408C439.677 149.651 440.442 149.922 441.058 150.22C441.674 150.519 442.159 150.864 442.514 151.256C442.869 151.592 443.121 151.984 443.27 152.432C443.419 152.88 443.494 153.375 443.494 153.916C443.494 154.794 443.242 155.578 442.738 156.268C442.253 156.959 441.581 157.5 440.722 157.892C439.882 158.284 438.93 158.48 437.866 158.48ZM454.786 158.2V137.48H458.258V158.2H454.786ZM468.78 158.48C467.305 158.48 465.989 158.154 464.832 157.5C463.674 156.828 462.76 155.914 462.088 154.756C461.416 153.599 461.08 152.283 461.08 150.808C461.08 149.334 461.416 148.018 462.088 146.86C462.76 145.703 463.674 144.798 464.832 144.144C465.989 143.472 467.305 143.136 468.78 143.136C470.236 143.136 471.542 143.472 472.7 144.144C473.857 144.798 474.762 145.703 475.416 146.86C476.088 148.018 476.424 149.334 476.424 150.808C476.424 152.283 476.088 153.599 475.416 154.756C474.762 155.914 473.857 156.828 472.7 157.5C471.542 158.154 470.236 158.48 468.78 158.48ZM468.78 155.428C469.582 155.428 470.292 155.223 470.908 154.812C471.542 154.402 472.037 153.851 472.392 153.16C472.765 152.47 472.942 151.686 472.924 150.808C472.942 149.912 472.765 149.119 472.392 148.428C472.037 147.738 471.542 147.196 470.908 146.804C470.292 146.394 469.582 146.188 468.78 146.188C467.977 146.188 467.249 146.394 466.596 146.804C465.961 147.196 465.466 147.747 465.112 148.456C464.757 149.147 464.58 149.931 464.58 150.808C464.58 151.686 464.757 152.47 465.112 153.16C465.466 153.851 465.961 154.402 466.596 154.812C467.249 155.223 467.977 155.428 468.78 155.428ZM486.14 164.64C485.039 164.64 483.938 164.472 482.836 164.136C481.754 163.8 480.876 163.362 480.204 162.82L481.436 160.272C481.828 160.552 482.267 160.795 482.752 161C483.238 161.206 483.751 161.364 484.292 161.476C484.852 161.588 485.403 161.644 485.944 161.644C486.934 161.644 487.755 161.486 488.408 161.168C489.08 160.87 489.584 160.403 489.92 159.768C490.256 159.152 490.424 158.378 490.424 157.444V154.728L490.928 154.924C490.816 155.503 490.508 156.054 490.004 156.576C489.5 157.099 488.866 157.528 488.1 157.864C487.335 158.182 486.551 158.34 485.748 158.34C484.348 158.34 483.107 158.014 482.024 157.36C480.96 156.707 480.111 155.82 479.476 154.7C478.86 153.562 478.552 152.255 478.552 150.78C478.552 149.306 478.86 147.999 479.476 146.86C480.092 145.703 480.932 144.798 481.996 144.144C483.079 143.472 484.292 143.136 485.636 143.136C486.196 143.136 486.738 143.202 487.26 143.332C487.783 143.463 488.259 143.65 488.688 143.892C489.136 144.135 489.538 144.406 489.892 144.704C490.247 145.003 490.536 145.32 490.76 145.656C490.984 145.992 491.124 146.319 491.18 146.636L490.452 146.86L490.508 143.444H493.896V157.192C493.896 158.387 493.719 159.442 493.364 160.356C493.01 161.271 492.496 162.046 491.824 162.68C491.152 163.334 490.34 163.819 489.388 164.136C488.436 164.472 487.354 164.64 486.14 164.64ZM486.28 155.4C487.12 155.4 487.858 155.204 488.492 154.812C489.146 154.42 489.65 153.879 490.004 153.188C490.359 152.498 490.536 151.704 490.536 150.808C490.536 149.894 490.35 149.091 489.976 148.4C489.622 147.691 489.127 147.14 488.492 146.748C487.858 146.356 487.12 146.16 486.28 146.16C485.44 146.16 484.703 146.366 484.068 146.776C483.434 147.168 482.93 147.719 482.556 148.428C482.202 149.119 482.024 149.912 482.024 150.808C482.024 151.686 482.202 152.479 482.556 153.188C482.93 153.879 483.434 154.42 484.068 154.812C484.703 155.204 485.44 155.4 486.28 155.4ZM499.279 163.856V155.988L499.559 156.716L498.047 157.668L496.955 155.652L499.895 153.916H501.771V163.856H500.539C500.334 163.856 500.129 163.856 499.923 163.856C499.718 163.856 499.503 163.856 499.279 163.856ZM509.168 163.8C508.31 163.8 507.544 163.567 506.872 163.1C506.219 162.652 505.696 162.036 505.304 161.252C504.912 160.468 504.716 159.572 504.716 158.564C504.716 157.538 504.903 156.632 505.276 155.848C505.65 155.046 506.172 154.42 506.844 153.972C507.516 153.524 508.291 153.3 509.168 153.3C510.046 153.3 510.811 153.524 511.464 153.972C512.136 154.42 512.65 155.046 513.004 155.848C513.378 156.632 513.564 157.538 513.564 158.564C513.564 159.572 513.378 160.468 513.004 161.252C512.631 162.036 512.108 162.652 511.436 163.1C510.764 163.567 510.008 163.8 509.168 163.8ZM509.168 161.448C509.542 161.448 509.859 161.327 510.12 161.084C510.4 160.86 510.615 160.524 510.764 160.076C510.914 159.647 510.988 159.143 510.988 158.564C510.988 157.687 510.83 156.987 510.512 156.464C510.195 155.923 509.747 155.652 509.168 155.652C508.608 155.652 508.151 155.923 507.796 156.464C507.46 156.987 507.292 157.687 507.292 158.564C507.292 159.442 507.46 160.142 507.796 160.664C508.132 161.187 508.59 161.448 509.168 161.448ZM522.577 163.408C520.3 161.99 518.564 160.216 517.369 158.088C516.174 155.96 515.577 153.59 515.577 150.976C515.577 148.382 516.174 146.02 517.369 143.892C518.582 141.746 520.328 139.963 522.605 138.544L524.481 140.504C522.652 141.774 521.261 143.314 520.309 145.124C519.376 146.935 518.909 148.886 518.909 150.976C518.909 153.067 519.376 155.018 520.309 156.828C521.261 158.639 522.652 160.179 524.481 161.448L522.577 163.408ZM532.378 158.396C531.015 158.396 529.783 158.107 528.682 157.528C527.58 156.931 526.666 156.072 525.938 154.952L527.954 152.768C528.775 153.683 529.512 154.318 530.166 154.672C530.819 155.008 531.538 155.176 532.322 155.176C533.031 155.176 533.666 155.027 534.226 154.728C534.786 154.411 535.234 153.991 535.57 153.468C535.906 152.927 536.074 152.339 536.074 151.704C536.074 151.014 535.915 150.407 535.598 149.884C535.28 149.343 534.851 148.914 534.31 148.596C533.768 148.279 533.152 148.12 532.462 148.12C532.088 148.12 531.734 148.148 531.398 148.204C531.062 148.26 530.67 148.372 530.222 148.54C529.792 148.708 529.242 148.97 528.57 149.324L526.834 146.972L527.982 138.544H538.818V141.764H530.026L530.838 140.868L529.914 147.084L528.878 146.356C529.12 146.132 529.475 145.918 529.942 145.712C530.427 145.507 530.95 145.339 531.51 145.208C532.07 145.078 532.62 145.012 533.162 145.012C534.375 145.012 535.458 145.292 536.41 145.852C537.362 146.412 538.118 147.187 538.678 148.176C539.238 149.147 539.518 150.267 539.518 151.536C539.518 152.824 539.2 153.991 538.566 155.036C537.95 156.063 537.1 156.884 536.018 157.5C534.935 158.098 533.722 158.396 532.378 158.396ZM543.441 163.408L541.565 161.448C543.395 160.179 544.785 158.639 545.737 156.828C546.689 155.018 547.165 153.067 547.165 150.976C547.165 148.886 546.689 146.935 545.737 145.124C544.785 143.314 543.395 141.774 541.565 140.504L543.469 138.544C545.747 139.963 547.483 141.736 548.677 143.864C549.872 145.992 550.469 148.363 550.469 150.976C550.469 153.571 549.863 155.942 548.649 158.088C547.455 160.216 545.719 161.99 543.441 163.408ZM557.022 152.012L556.238 148.148C556.891 147.98 557.489 147.794 558.03 147.588C558.59 147.383 559.075 147.159 559.486 146.916C559.897 146.655 560.242 146.375 560.522 146.076C560.821 145.778 561.035 145.451 561.166 145.096C561.315 144.742 561.39 144.368 561.39 143.976C561.39 143.491 561.269 143.062 561.026 142.688C560.783 142.315 560.438 142.026 559.99 141.82C559.542 141.615 559.047 141.512 558.506 141.512C557.797 141.512 557.106 141.755 556.434 142.24C555.762 142.726 555.174 143.444 554.67 144.396L552.234 142.24C553.037 140.99 553.998 140.019 555.118 139.328C556.257 138.638 557.451 138.292 558.702 138.292C559.897 138.292 560.97 138.535 561.922 139.02C562.874 139.506 563.63 140.178 564.19 141.036C564.75 141.876 565.03 142.828 565.03 143.892C565.03 144.527 564.899 145.162 564.638 145.796C564.377 146.412 564.003 146.991 563.518 147.532C563.033 148.074 562.463 148.559 561.81 148.988C561.157 149.399 560.438 149.735 559.654 149.996L559.262 152.012H557.022ZM556.014 156.268C556.014 155.615 556.21 155.083 556.602 154.672C556.994 154.243 557.507 154.028 558.142 154.028C558.795 154.028 559.309 154.224 559.682 154.616C560.055 154.99 560.242 155.54 560.242 156.268C560.242 156.922 560.046 157.463 559.654 157.892C559.262 158.303 558.758 158.508 558.142 158.508C557.47 158.508 556.947 158.312 556.574 157.92C556.201 157.528 556.014 156.978 556.014 156.268Z" fill="#1A1A1A"/>
<path d="M46 221.7H596C602.351 221.7 607.5 226.849 607.5 233.2V301.2C607.5 307.551 602.351 312.7 596 312.7H46C39.6487 312.7 34.5 307.551 34.5 301.2V233.2C34.5 226.849 39.6487 221.7 46 221.7Z" stroke="#E0E0E0"/>
<path d="M80 245.7C91.8741 245.7 101.5 255.326 101.5 267.2C101.5 279.074 91.8741 288.7 80 288.7C68.1259 288.7 58.5 279.074 58.5 267.2C58.5 255.326 68.1259 245.7 80 245.7Z" stroke="#E0E0E0"/>
<path d="M74.0038 274.2L78.9178 261.6H81.1138L85.9918 274.2H83.5618L80.8618 267.036C80.8018 266.892 80.7178 266.664 80.6098 266.352C80.5138 266.04 80.4058 265.704 80.2858 265.344C80.1658 264.972 80.0578 264.63 79.9618 264.318C79.8658 263.994 79.7938 263.76 79.7458 263.616L80.1958 263.598C80.1238 263.838 80.0398 264.108 79.9438 264.408C79.8478 264.708 79.7458 265.02 79.6378 265.344C79.5298 265.668 79.4218 265.98 79.3138 266.28C79.2178 266.58 79.1278 266.85 79.0438 267.09L76.3438 274.2H74.0038ZM76.2358 271.32L77.0458 269.286H82.7878L83.6518 271.32H76.2358Z" fill="#333333"/>
<path d="M139.67 274.38C138.65 274.38 137.774 274.122 137.042 273.606C136.322 273.078 135.764 272.334 135.368 271.374C134.984 270.402 134.792 269.244 134.792 267.9C134.792 266.556 134.984 265.404 135.368 264.444C135.764 263.472 136.322 262.728 137.042 262.212C137.774 261.684 138.65 261.42 139.67 261.42C140.69 261.42 141.566 261.684 142.298 262.212C143.03 262.728 143.588 263.472 143.972 264.444C144.368 265.404 144.566 266.556 144.566 267.9C144.566 269.244 144.368 270.402 143.972 271.374C143.588 272.334 143.03 273.078 142.298 273.606C141.566 274.122 140.69 274.38 139.67 274.38ZM139.67 272.328C140.51 272.328 141.158 271.944 141.614 271.176C142.082 270.396 142.316 269.304 142.316 267.9C142.316 266.484 142.082 265.386 141.614 264.606C141.158 263.826 140.51 263.436 139.67 263.436C138.83 263.436 138.176 263.826 137.708 264.606C137.252 265.386 137.024 266.484 137.024 267.9C137.024 269.304 137.252 270.396 137.708 271.176C138.176 271.944 138.83 272.328 139.67 272.328ZM147.497 274.398C147.065 274.398 146.729 274.272 146.489 274.02C146.261 273.768 146.147 273.414 146.147 272.958C146.147 272.538 146.267 272.196 146.507 271.932C146.759 271.656 147.089 271.518 147.497 271.518C147.929 271.518 148.259 271.644 148.487 271.896C148.727 272.136 148.847 272.49 148.847 272.958C148.847 273.378 148.721 273.726 148.469 274.002C148.229 274.266 147.905 274.398 147.497 274.398ZM154.811 274.2C154.175 274.2 153.581 274.086 153.029 273.858C152.489 273.63 152.015 273.318 151.607 272.922C151.211 272.514 150.899 272.04 150.671 271.5C150.443 270.96 150.329 270.366 150.329 269.718C150.329 269.358 150.371 268.974 150.455 268.566C150.551 268.158 150.689 267.726 150.869 267.27C151.061 266.802 151.283 266.316 151.535 265.812C151.787 265.308 152.081 264.78 152.417 264.228L154.091 261.384H156.323L156.395 261.564L154.253 265.092C153.905 265.668 153.599 266.214 153.335 266.73C153.071 267.234 152.843 267.72 152.651 268.188C152.471 268.644 152.321 269.088 152.201 269.52L151.715 267.882C151.895 267.498 152.117 267.15 152.381 266.838C152.645 266.526 152.939 266.262 153.263 266.046C153.587 265.83 153.923 265.668 154.271 265.56C154.631 265.452 154.997 265.398 155.369 265.398C156.065 265.398 156.707 265.59 157.295 265.974C157.883 266.346 158.351 266.844 158.699 267.468C159.059 268.092 159.239 268.776 159.239 269.52C159.239 270.42 159.047 271.224 158.663 271.932C158.291 272.628 157.769 273.18 157.097 273.588C156.425 273.996 155.663 274.2 154.811 274.2ZM154.829 272.148C155.261 272.148 155.645 272.046 155.981 271.842C156.329 271.638 156.599 271.356 156.791 270.996C156.983 270.624 157.079 270.198 157.079 269.718C157.079 269.31 156.977 268.932 156.773 268.584C156.581 268.224 156.317 267.936 155.981 267.72C155.645 267.492 155.267 267.378 154.847 267.378C154.391 267.378 153.983 267.486 153.623 267.702C153.275 267.906 152.999 268.188 152.795 268.548C152.603 268.896 152.507 269.286 152.507 269.718C152.507 270.174 152.603 270.588 152.795 270.96C152.999 271.32 153.275 271.608 153.623 271.824C153.971 272.04 154.373 272.148 154.829 272.148ZM163.8 274.2L163.728 274.02L167.544 266.064L167.76 267.414C167.58 267.798 167.358 268.14 167.094 268.44C166.842 268.74 166.548 269.004 166.212 269.232C165.888 269.448 165.552 269.616 165.204 269.736C164.856 269.844 164.508 269.898 164.16 269.898C163.476 269.898 162.846 269.718 162.27 269.358C161.694 268.986 161.232 268.5 160.884 267.9C160.536 267.288 160.362 266.622 160.362 265.902C160.362 265.05 160.56 264.282 160.956 263.598C161.352 262.902 161.886 262.356 162.558 261.96C163.242 261.552 164.01 261.348 164.862 261.348C165.474 261.348 166.05 261.462 166.59 261.69C167.142 261.906 167.616 262.212 168.012 262.608C168.42 263.004 168.738 263.46 168.966 263.976C169.206 264.492 169.326 265.038 169.326 265.614C169.326 265.962 169.29 266.322 169.218 266.694C169.158 267.054 169.056 267.45 168.912 267.882C168.768 268.314 168.582 268.788 168.354 269.304C168.138 269.82 167.874 270.408 167.562 271.068L166.032 274.2H163.8ZM164.682 267.882C165.114 267.882 165.504 267.786 165.852 267.594C166.2 267.39 166.47 267.126 166.662 266.802C166.854 266.478 166.95 266.106 166.95 265.686C166.95 265.254 166.854 264.864 166.662 264.516C166.47 264.168 166.206 263.898 165.87 263.706C165.534 263.502 165.15 263.4 164.718 263.4C164.31 263.4 163.95 263.496 163.638 263.688C163.326 263.88 163.074 264.15 162.882 264.498C162.702 264.834 162.612 265.23 162.612 265.686C162.612 266.07 162.702 266.43 162.882 266.766C163.074 267.102 163.326 267.372 163.638 267.576C163.962 267.78 164.31 267.882 164.682 267.882ZM173.873 274.2L173.801 274.02L177.617 266.064L177.833 267.414C177.653 267.798 177.431 268.14 177.167 268.44C176.915 268.74 176.621 269.004 176.285 269.232C175.961 269.448 175.625 269.616 175.277 269.736C174.929 269.844 174.581 269.898 174.233 269.898C173.549 269.898 172.919 269.718 172.343 269.358C171.767 268.986 171.305 268.5 170.957 267.9C170.609 267.288 170.435 266.622 170.435 265.902C170.435 265.05 170.633 264.282 171.029 263.598C171.425 262.902 171.959 262.356 172.631 261.96C173.315 261.552 174.083 261.348 174.935 261.348C175.547 261.348 176.123 261.462 176.663 261.69C177.215 261.906 177.689 262.212 178.085 262.608C178.493 263.004 178.811 263.46 179.039 263.976C179.279 264.492 179.399 265.038 179.399 265.614C179.399 265.962 179.363 266.322 179.291 266.694C179.231 267.054 179.129 267.45 178.985 267.882C178.841 268.314 178.655 268.788 178.427 269.304C178.211 269.82 177.947 270.408 177.635 271.068L176.105 274.2H173.873ZM174.755 267.882C175.187 267.882 175.577 267.786 175.925 267.594C176.273 267.39 176.543 267.126 176.735 266.802C176.927 266.478 177.023 266.106 177.023 265.686C177.023 265.254 176.927 264.864 176.735 264.516C176.543 264.168 176.279 263.898 175.943 263.706C175.607 263.502 175.223 263.4 174.791 263.4C174.383 263.4 174.023 263.496 173.711 263.688C173.399 263.88 173.147 264.15 172.955 264.498C172.775 264.834 172.685 265.23 172.685 265.686C172.685 266.07 172.775 266.43 172.955 266.766C173.147 267.102 173.399 267.372 173.711 267.576C174.035 267.78 174.383 267.882 174.755 267.882ZM185.637 274.38C184.617 274.38 183.741 274.122 183.009 273.606C182.289 273.078 181.731 272.334 181.335 271.374C180.951 270.402 180.759 269.244 180.759 267.9C180.759 266.556 180.951 265.404 181.335 264.444C181.731 263.472 182.289 262.728 183.009 262.212C183.741 261.684 184.617 261.42 185.637 261.42C186.657 261.42 187.533 261.684 188.265 262.212C188.997 262.728 189.555 263.472 189.939 264.444C190.335 265.404 190.533 266.556 190.533 267.9C190.533 269.244 190.335 270.402 189.939 271.374C189.555 272.334 188.997 273.078 188.265 273.606C187.533 274.122 186.657 274.38 185.637 274.38ZM185.637 272.328C186.477 272.328 187.125 271.944 187.581 271.176C188.049 270.396 188.283 269.304 188.283 267.9C188.283 266.484 188.049 265.386 187.581 264.606C187.125 263.826 186.477 263.436 185.637 263.436C184.797 263.436 184.143 263.826 183.675 264.606C183.219 265.386 182.991 266.484 182.991 267.9C182.991 269.304 183.219 270.396 183.675 271.176C184.143 271.944 184.797 272.328 185.637 272.328Z" fill="#1A1A1A"/>
<path d="M46 329.7H596C602.351 329.7 607.5 334.849 607.5 341.2V409.2C607.5 415.551 602.351 420.7 596 420.7H46C39.6487 420.7 34.5 415.551 34.5 409.2V341.2C34.5 334.849 39.6487 329.7 46 329.7Z" stroke="#E0E0E0"/>
<path d="M80 353.7C91.8741 353.7 101.5 363.326 101.5 375.2C101.5 387.074 91.8741 396.7 80 396.7C68.1259 396.7 58.5 387.074 58.5 375.2C58.5 363.326 68.1259 353.7 80 353.7Z" stroke="#E0E0E0"/>
<path d="M75.4957 382.2V369.6H80.8597C81.6877 369.6 82.3837 369.72 82.9477 369.96C83.5237 370.2 83.9557 370.56 84.2437 371.04C84.5437 371.508 84.6937 372.078 84.6937 372.75C84.6937 373.446 84.5077 374.034 84.1357 374.514C83.7637 374.994 83.2417 375.324 82.5697 375.504L82.5517 375.144C83.1157 375.264 83.6077 375.48 84.0277 375.792C84.4477 376.092 84.7717 376.47 84.9997 376.926C85.2397 377.37 85.3597 377.88 85.3597 378.456C85.3597 379.068 85.2577 379.608 85.0537 380.076C84.8617 380.544 84.5737 380.934 84.1897 381.246C83.8057 381.558 83.3497 381.798 82.8217 381.966C82.2937 382.122 81.6997 382.2 81.0397 382.2H75.4957ZM77.7817 380.094H80.9317C81.3757 380.094 81.7477 380.028 82.0477 379.896C82.3597 379.764 82.5937 379.572 82.7497 379.32C82.9177 379.056 83.0017 378.744 83.0017 378.384C83.0017 378.048 82.9117 377.76 82.7317 377.52C82.5637 377.28 82.3177 377.1 81.9937 376.98C81.6697 376.848 81.2857 376.782 80.8417 376.782H77.7817V380.094ZM77.7817 374.766H80.6437C80.9917 374.766 81.2917 374.7 81.5437 374.568C81.8077 374.436 82.0117 374.256 82.1557 374.028C82.2997 373.8 82.3717 373.536 82.3717 373.236C82.3717 372.756 82.2097 372.384 81.8857 372.12C81.5617 371.844 81.0877 371.706 80.4637 371.706H77.7817V374.766Z" fill="#333333"/>
<path d="M139.67 382.38C138.65 382.38 137.774 382.122 137.042 381.606C136.322 381.078 135.764 380.334 135.368 379.374C134.984 378.402 134.792 377.244 134.792 375.9C134.792 374.556 134.984 373.404 135.368 372.444C135.764 371.472 136.322 370.728 137.042 370.212C137.774 369.684 138.65 369.42 139.67 369.42C140.69 369.42 141.566 369.684 142.298 370.212C143.03 370.728 143.588 371.472 143.972 372.444C144.368 373.404 144.566 374.556 144.566 375.9C144.566 377.244 144.368 378.402 143.972 379.374C143.588 380.334 143.03 381.078 142.298 381.606C141.566 382.122 140.69 382.38 139.67 382.38ZM139.67 380.328C140.51 380.328 141.158 379.944 141.614 379.176C142.082 378.396 142.316 377.304 142.316 375.9C142.316 374.484 142.082 373.386 141.614 372.606C141.158 371.826 140.51 371.436 139.67 371.436C138.83 371.436 138.176 371.826 137.708 372.606C137.252 373.386 137.024 374.484 137.024 375.9C137.024 377.304 137.252 378.396 137.708 379.176C138.176 379.944 138.83 380.328 139.67 380.328ZM147.497 382.398C147.065 382.398 146.729 382.272 146.489 382.02C146.261 381.768 146.147 381.414 146.147 380.958C146.147 380.538 146.267 380.196 146.507 379.932C146.759 379.656 147.089 379.518 147.497 379.518C147.929 379.518 148.259 379.644 148.487 379.896C148.727 380.136 148.847 380.49 148.847 380.958C148.847 381.378 148.721 381.726 148.469 382.002C148.229 382.266 147.905 382.398 147.497 382.398ZM154.811 382.2C154.175 382.2 153.581 382.086 153.029 381.858C152.489 381.63 152.015 381.318 151.607 380.922C151.211 380.514 150.899 380.04 150.671 379.5C150.443 378.96 150.329 378.366 150.329 377.718C150.329 377.358 150.371 376.974 150.455 376.566C150.551 376.158 150.689 375.726 150.869 375.27C151.061 374.802 151.283 374.316 151.535 373.812C151.787 373.308 152.081 372.78 152.417 372.228L154.091 369.384H156.323L156.395 369.564L154.253 373.092C153.905 373.668 153.599 374.214 153.335 374.73C153.071 375.234 152.843 375.72 152.651 376.188C152.471 376.644 152.321 377.088 152.201 377.52L151.715 375.882C151.895 375.498 152.117 375.15 152.381 374.838C152.645 374.526 152.939 374.262 153.263 374.046C153.587 373.83 153.923 373.668 154.271 373.56C154.631 373.452 154.997 373.398 155.369 373.398C156.065 373.398 156.707 373.59 157.295 373.974C157.883 374.346 158.351 374.844 158.699 375.468C159.059 376.092 159.239 376.776 159.239 377.52C159.239 378.42 159.047 379.224 158.663 379.932C158.291 380.628 157.769 381.18 157.097 381.588C156.425 381.996 155.663 382.2 154.811 382.2ZM154.829 380.148C155.261 380.148 155.645 380.046 155.981 379.842C156.329 379.638 156.599 379.356 156.791 378.996C156.983 378.624 157.079 378.198 157.079 377.718C157.079 377.31 156.977 376.932 156.773 376.584C156.581 376.224 156.317 375.936 155.981 375.72C155.645 375.492 155.267 375.378 154.847 375.378C154.391 375.378 153.983 375.486 153.623 375.702C153.275 375.906 152.999 376.188 152.795 376.548C152.603 376.896 152.507 377.286 152.507 377.718C152.507 378.174 152.603 378.588 152.795 378.96C152.999 379.32 153.275 379.608 153.623 379.824C153.971 380.04 154.373 380.148 154.829 380.148ZM165.492 382.38C164.472 382.38 163.596 382.122 162.864 381.606C162.144 381.078 161.586 380.334 161.19 379.374C160.806 378.402 160.614 377.244 160.614 375.9C160.614 374.556 160.806 373.404 161.19 372.444C161.586 371.472 162.144 370.728 162.864 370.212C163.596 369.684 164.472 369.42 165.492 369.42C166.512 369.42 167.388 369.684 168.12 370.212C168.852 370.728 169.41 371.472 169.794 372.444C170.19 373.404 170.388 374.556 170.388 375.9C170.388 377.244 170.19 378.402 169.794 379.374C169.41 380.334 168.852 381.078 168.12 381.606C167.388 382.122 166.512 382.38 165.492 382.38ZM165.492 380.328C166.332 380.328 166.98 379.944 167.436 379.176C167.904 378.396 168.138 377.304 168.138 375.9C168.138 374.484 167.904 373.386 167.436 372.606C166.98 371.826 166.332 371.436 165.492 371.436C164.652 371.436 163.998 371.826 163.53 372.606C163.074 373.386 162.846 374.484 162.846 375.9C162.846 377.304 163.074 378.396 163.53 379.176C163.998 379.944 164.652 380.328 165.492 380.328ZM172.636 382.2L172.042 380.724L175.822 376.494C176.038 376.278 176.26 376.032 176.488 375.756C176.716 375.468 176.932 375.174 177.136 374.874C177.352 374.562 177.526 374.262 177.658 373.974C177.79 373.674 177.856 373.398 177.856 373.146C177.856 372.822 177.784 372.54 177.64 372.3C177.508 372.06 177.316 371.874 177.064 371.742C176.812 371.61 176.5 371.544 176.128 371.544C175.804 371.544 175.486 371.64 175.174 371.832C174.874 372.012 174.592 372.276 174.328 372.624C174.076 372.96 173.866 373.362 173.698 373.83L171.934 372.786C172.15 372.09 172.474 371.49 172.906 370.986C173.35 370.47 173.866 370.074 174.454 369.798C175.054 369.522 175.702 369.384 176.398 369.384C177.118 369.384 177.76 369.534 178.324 369.834C178.888 370.134 179.332 370.548 179.656 371.076C179.992 371.604 180.16 372.222 180.16 372.93C180.16 373.194 180.13 373.47 180.07 373.758C180.01 374.034 179.914 374.328 179.782 374.64C179.662 374.94 179.5 375.258 179.296 375.594C179.092 375.918 178.846 376.26 178.558 376.62C178.282 376.98 177.964 377.358 177.604 377.754L174.742 380.868L174.382 380.04H180.61V382.2H172.636ZM186.709 382.38C185.689 382.38 184.813 382.122 184.081 381.606C183.361 381.078 182.803 380.334 182.407 379.374C182.023 378.402 181.831 377.244 181.831 375.9C181.831 374.556 182.023 373.404 182.407 372.444C182.803 371.472 183.361 370.728 184.081 370.212C184.813 369.684 185.689 369.42 186.709 369.42C187.729 369.42 188.605 369.684 189.337 370.212C190.069 370.728 190.627 371.472 191.011 372.444C191.407 373.404 191.605 374.556 191.605 375.9C191.605 377.244 191.407 378.402 191.011 379.374C190.627 380.334 190.069 381.078 189.337 381.606C188.605 382.122 187.729 382.38 186.709 382.38ZM186.709 380.328C187.549 380.328 188.197 379.944 188.653 379.176C189.121 378.396 189.355 377.304 189.355 375.9C189.355 374.484 189.121 373.386 188.653 372.606C188.197 371.826 187.549 371.436 186.709 371.436C185.869 371.436 185.215 371.826 184.747 372.606C184.291 373.386 184.063 374.484 184.063 375.9C184.063 377.304 184.291 378.396 184.747 379.176C185.215 379.944 185.869 380.328 186.709 380.328Z" fill="#1A1A1A"/>
<path d="M46 437.7H596C602.351 437.7 607.5 442.849 607.5 449.2V517.2C607.5 523.551 602.351 528.7 596 528.7H46C39.6487 528.7 34.5 523.551 34.5 517.2V449.2C34.5 442.849 39.6487 437.7 46 437.7Z" stroke="#E0E0E0"/>
<path d="M80 461.7C91.8741 461.7 101.5 471.326 101.5 483.2C101.5 495.074 91.8741 504.7 80 504.7C68.1259 504.7 58.5 495.074 58.5 483.2C58.5 471.326 68.1259 461.7 80 461.7Z" stroke="#E0E0E0"/>
<path d="M80.8857 490.38C79.9737 490.38 79.1397 490.224 78.3837 489.912C77.6277 489.6 76.9737 489.156 76.4217 488.58C75.8697 487.992 75.4377 487.302 75.1257 486.51C74.8257 485.706 74.6757 484.83 74.6757 483.882C74.6757 482.97 74.8377 482.124 75.1617 481.344C75.4857 480.564 75.9357 479.88 76.5117 479.292C77.0877 478.704 77.7597 478.248 78.5277 477.924C79.2957 477.6 80.1297 477.438 81.0297 477.438C81.6417 477.438 82.2357 477.528 82.8117 477.708C83.3877 477.888 83.9157 478.14 84.3957 478.464C84.8757 478.776 85.2777 479.142 85.6017 479.562L84.1077 481.2C83.7957 480.876 83.4717 480.606 83.1357 480.39C82.8117 480.162 82.4697 479.994 82.1097 479.886C81.7617 479.766 81.4017 479.706 81.0297 479.706C80.4777 479.706 79.9557 479.808 79.4637 480.012C78.9837 480.216 78.5637 480.504 78.2037 480.876C77.8557 481.248 77.5797 481.692 77.3757 482.208C77.1717 482.712 77.0697 483.276 77.0697 483.9C77.0697 484.536 77.1657 485.112 77.3577 485.628C77.5617 486.144 77.8437 486.588 78.2037 486.96C78.5757 487.332 79.0137 487.62 79.5177 487.824C80.0337 488.016 80.5977 488.112 81.2097 488.112C81.6057 488.112 81.9897 488.058 82.3617 487.95C82.7337 487.842 83.0757 487.692 83.3877 487.5C83.7117 487.296 84.0057 487.062 84.2697 486.798L85.4217 488.652C85.1337 488.976 84.7497 489.27 84.2697 489.534C83.7897 489.798 83.2497 490.008 82.6497 490.164C82.0617 490.308 81.4737 490.38 80.8857 490.38Z" fill="#333333"/>
<path d="M139.67 490.38C138.65 490.38 137.774 490.122 137.042 489.606C136.322 489.078 135.764 488.334 135.368 487.374C134.984 486.402 134.792 485.244 134.792 483.9C134.792 482.556 134.984 481.404 135.368 480.444C135.764 479.472 136.322 478.728 137.042 478.212C137.774 477.684 138.65 477.42 139.67 477.42C140.69 477.42 141.566 477.684 142.298 478.212C143.03 478.728 143.588 479.472 143.972 480.444C144.368 481.404 144.566 482.556 144.566 483.9C144.566 485.244 144.368 486.402 143.972 487.374C143.588 488.334 143.03 489.078 142.298 489.606C141.566 490.122 140.69 490.38 139.67 490.38ZM139.67 488.328C140.51 488.328 141.158 487.944 141.614 487.176C142.082 486.396 142.316 485.304 142.316 483.9C142.316 482.484 142.082 481.386 141.614 480.606C141.158 479.826 140.51 479.436 139.67 479.436C138.83 479.436 138.176 479.826 137.708 480.606C137.252 481.386 137.024 482.484 137.024 483.9C137.024 485.304 137.252 486.396 137.708 487.176C138.176 487.944 138.83 488.328 139.67 488.328ZM147.497 490.398C147.065 490.398 146.729 490.272 146.489 490.02C146.261 489.768 146.147 489.414 146.147 488.958C146.147 488.538 146.267 488.196 146.507 487.932C146.759 487.656 147.089 487.518 147.497 487.518C147.929 487.518 148.259 487.644 148.487 487.896C148.727 488.136 148.847 488.49 148.847 488.958C148.847 489.378 148.721 489.726 148.469 490.002C148.229 490.266 147.905 490.398 147.497 490.398ZM151.481 490.2L156.647 478.788L157.079 479.67H150.635V477.564H158.573L158.843 478.878L153.911 490.2H151.481ZM161.307 490.2L166.473 478.788L166.905 479.67H160.461V477.564H168.399L168.669 478.878L163.737 490.2H161.307ZM174.201 490.254C173.397 490.254 172.659 490.092 171.987 489.768C171.327 489.432 170.799 488.988 170.403 488.436C170.007 487.872 169.809 487.248 169.809 486.564C169.809 486.156 169.863 485.778 169.971 485.43C170.091 485.082 170.259 484.77 170.475 484.494C170.703 484.218 170.973 483.972 171.285 483.756C171.609 483.528 171.975 483.33 172.383 483.162L172.239 483.666C171.927 483.534 171.639 483.378 171.375 483.198C171.123 483.018 170.901 482.814 170.709 482.586C170.529 482.346 170.391 482.094 170.295 481.83C170.199 481.554 170.151 481.266 170.151 480.966C170.151 480.318 170.331 479.736 170.691 479.22C171.063 478.704 171.555 478.296 172.167 477.996C172.779 477.684 173.457 477.528 174.201 477.528C174.957 477.528 175.641 477.684 176.253 477.996C176.865 478.296 177.351 478.704 177.711 479.22C178.083 479.736 178.269 480.318 178.269 480.966C178.269 481.266 178.221 481.554 178.125 481.83C178.029 482.094 177.891 482.34 177.711 482.568C177.543 482.784 177.327 482.988 177.063 483.18C176.799 483.36 176.493 483.522 176.145 483.666L176.055 483.234C176.439 483.366 176.787 483.54 177.099 483.756C177.411 483.972 177.681 484.224 177.909 484.512C178.137 484.8 178.311 485.118 178.431 485.466C178.563 485.814 178.629 486.18 178.629 486.564C178.629 487.26 178.431 487.89 178.035 488.454C177.639 489.006 177.105 489.444 176.433 489.768C175.773 490.092 175.029 490.254 174.201 490.254ZM174.201 488.238C174.609 488.238 174.975 488.16 175.299 488.004C175.623 487.848 175.875 487.638 176.055 487.374C176.247 487.11 176.343 486.804 176.343 486.456C176.343 486.084 176.247 485.76 176.055 485.484C175.875 485.196 175.623 484.974 175.299 484.818C174.975 484.65 174.609 484.566 174.201 484.566C173.805 484.566 173.445 484.65 173.121 484.818C172.809 484.974 172.557 485.196 172.365 485.484C172.173 485.76 172.077 486.084 172.077 486.456C172.077 486.792 172.173 487.092 172.365 487.356C172.557 487.62 172.809 487.836 173.121 488.004C173.445 488.16 173.805 488.238 174.201 488.238ZM174.201 482.586C174.561 482.586 174.879 482.52 175.155 482.388C175.443 482.256 175.665 482.076 175.821 481.848C175.977 481.62 176.055 481.356 176.055 481.056C176.055 480.744 175.977 480.474 175.821 480.246C175.665 480.006 175.443 479.82 175.155 479.688C174.879 479.544 174.561 479.472 174.201 479.472C173.853 479.472 173.535 479.544 173.247 479.688C172.971 479.82 172.755 480.006 172.599 480.246C172.443 480.474 172.365 480.744 172.365 481.056C172.365 481.356 172.443 481.62 172.599 481.848C172.755 482.076 172.971 482.256 173.247 482.388C173.535 482.52 173.853 482.586 174.201 482.586ZM183.362 489.318V479.094L184.028 479.958L181.472 481.254L180.95 479.202L184.388 477.42H185.684V489.318H183.362ZM181.256 490.2V488.04H187.844V490.2H181.256Z" fill="#1A1A1A"/>
<path d="M46 545.7H596C602.351 545.7 607.5 550.849 607.5 557.2V625.2C607.5 631.551 602.351 636.7 596 636.7H46C39.6487 636.7 34.5 631.551 34.5 625.2V557.2C34.5 550.849 39.6487 545.7 46 545.7Z" stroke="#E0E0E0"/>
<path d="M80 569.7C91.8741 569.7 101.5 579.326 101.5 591.2C101.5 603.074 91.8741 612.7 80 612.7C68.1259 612.7 58.5 603.074 58.5 591.2C58.5 579.326 68.1259 569.7 80 569.7Z" stroke="#E0E0E0"/>
<path d="M74.8805 598.2V585.6H79.9385C80.8505 585.6 81.6725 585.75 82.4045 586.05C83.1485 586.35 83.7845 586.782 84.3125 587.346C84.8525 587.91 85.2605 588.576 85.5365 589.344C85.8245 590.112 85.9685 590.964 85.9685 591.9C85.9685 592.836 85.8245 593.694 85.5365 594.474C85.2605 595.242 84.8585 595.908 84.3305 596.472C83.8025 597.024 83.1665 597.45 82.4225 597.75C81.6785 598.05 80.8505 598.2 79.9385 598.2H74.8805ZM77.2205 596.382L77.0405 596.04H79.8485C80.4365 596.04 80.9585 595.944 81.4145 595.752C81.8825 595.56 82.2785 595.284 82.6025 594.924C82.9265 594.564 83.1725 594.132 83.3405 593.628C83.5085 593.112 83.5925 592.536 83.5925 591.9C83.5925 591.264 83.5085 590.694 83.3405 590.19C83.1725 589.674 82.9205 589.236 82.5845 588.876C82.2605 588.516 81.8705 588.24 81.4145 588.048C80.9585 587.856 80.4365 587.76 79.8485 587.76H76.9865L77.2205 587.454V596.382Z" fill="#333333"/>
<path d="M139.67 598.38C138.65 598.38 137.774 598.122 137.042 597.606C136.322 597.078 135.764 596.334 135.368 595.374C134.984 594.402 134.792 593.244 134.792 591.9C134.792 590.556 134.984 589.404 135.368 588.444C135.764 587.472 136.322 586.728 137.042 586.212C137.774 585.684 138.65 585.42 139.67 585.42C140.69 585.42 141.566 585.684 142.298 586.212C143.03 586.728 143.588 587.472 143.972 588.444C144.368 589.404 144.566 590.556 144.566 591.9C144.566 593.244 144.368 594.402 143.972 595.374C143.588 596.334 143.03 597.078 142.298 597.606C141.566 598.122 140.69 598.38 139.67 598.38ZM139.67 596.328C140.51 596.328 141.158 595.944 141.614 595.176C142.082 594.396 142.316 593.304 142.316 591.9C142.316 590.484 142.082 589.386 141.614 588.606C141.158 587.826 140.51 587.436 139.67 587.436C138.83 587.436 138.176 587.826 137.708 588.606C137.252 589.386 137.024 590.484 137.024 591.9C137.024 593.304 137.252 594.396 137.708 595.176C138.176 595.944 138.83 596.328 139.67 596.328ZM147.497 598.398C147.065 598.398 146.729 598.272 146.489 598.02C146.261 597.768 146.147 597.414 146.147 596.958C146.147 596.538 146.267 596.196 146.507 595.932C146.759 595.656 147.089 595.518 147.497 595.518C147.929 595.518 148.259 595.644 148.487 595.896C148.727 596.136 148.847 596.49 148.847 596.958C148.847 597.378 148.721 597.726 148.469 598.002C148.229 598.266 147.905 598.398 147.497 598.398ZM155.506 598.2V588.03L156.37 588.12L152.086 593.358L151.888 593.034H159.898V595.068H150.628L149.656 593.196L155.92 585.564H157.756V598.2H155.506ZM162.098 598.2L167.264 586.788L167.696 587.67H161.252V585.564H169.19L169.46 586.878L164.528 598.2H162.098ZM171.924 598.2L177.09 586.788L177.522 587.67H171.078V585.564H179.016L179.286 586.878L174.354 598.2H171.924ZM183.52 597.318V587.094L184.186 587.958L181.63 589.254L181.108 587.202L184.546 585.42H185.842V597.318H183.52ZM181.414 598.2V596.04H188.002V598.2H181.414Z" fill="#1A1A1A"/>
</g>
<defs>
<filter id="filter0_ddd_356_5139" x="0" y="0.000195265" width="643" height="674.2" filterUnits="userSpaceOnUse" color-interpolation-filters="sRGB">
<feFlood flood-opacity="0" result="BackgroundImageFix"/>
<feColorMatrix in="SourceAlpha" type="matrix" values="0 0 0 0 0 0 0 0 0 0 0 0 0 0 0 0 0 0 127 0" result="hardAlpha"/>
<feOffset dx="3" dy="5"/>
<feComposite in2="hardAlpha" operator="out"/>
<feColorMatrix type="matrix" values="0 0 0 0 0.878431 0 0 0 0 0.878431 0 0 0 0 0.878431 0 0 0 1 0"/>
<feBlend mode="normal" in2="BackgroundImageFix" result="effect1_dropShadow_356_5139"/>
<feColorMatrix in="SourceAlpha" type="matrix" values="0 0 0 0 0 0 0 0 0 0 0 0 0 0 0 0 0 0 127 0" result="hardAlpha"/>
<feOffset dx="-2"/>
<feComposite in2="hardAlpha" operator="out"/>
<feColorMatrix type="matrix" values="0 0 0 0 0.878431 0 0 0 0 0.878431 0 0 0 0 0.878431 0 0 0 1 0"/>
<feBlend mode="normal" in2="effect1_dropShadow_356_5139" result="effect2_dropShadow_356_5139"/>
<feColorMatrix in="SourceAlpha" type="matrix" values="0 0 0 0 0 0 0 0 0 0 0 0 0 0 0 0 0 0 127 0" result="hardAlpha"/>
<feOffset dy="-1.2"/>
<feComposite in2="hardAlpha" operator="out"/>
<feColorMatrix type="matrix" values="0 0 0 0 0.878431 0 0 0 0 0.878431 0 0 0 0 0.878431 0 0 0 1 0"/>
<feBlend mode="normal" in2="effect2_dropShadow_356_5139" result="effect3_dropShadow_356_5139"/>
<feBlend mode="normal" in="SourceGraphic" in2="effect3_dropShadow_356_5139" result="shape"/>
</filter>
</defs>
</svg>
