<svg width="152" height="32" viewBox="0 0 152 32" fill="none" xmlns="http://www.w3.org/2000/svg">
<path d="M21.4286 10.843H0V32H21.4286V10.843Z" fill="#E0E0E0"/>
<path d="M21.4286 10.843V32L30 23.5372V0L21.4286 10.843Z" fill="#BDBDBD"/>
<path d="M0 10.843H21.4286L30 0H8.57143L0 10.843Z" fill="white"/>
<path d="M38 10.6946V7.26847H52.7528V10.6946H47.4602V24.723H43.3011V10.6946H38Z" fill="white"/>
<path d="M59.0341 24.9702C57.6648 24.9702 56.483 24.7003 55.4886 24.1605C54.5 23.6151 53.7386 22.8395 53.2045 21.8338C52.6761 20.8224 52.4119 19.6207 52.4119 18.2287C52.4119 16.8764 52.679 15.6946 53.2131 14.6832C53.7472 13.6662 54.5 12.8764 55.4716 12.3139C56.4432 11.7457 57.5881 11.4616 58.9062 11.4616C59.8381 11.4616 60.6903 11.6065 61.4631 11.8963C62.2358 12.1861 62.9034 12.6151 63.4659 13.1832C64.0284 13.7514 64.4659 14.4531 64.7784 15.2884C65.0909 16.1179 65.2472 17.0696 65.2472 18.1435V19.1832H53.8693V16.7628H61.3693C61.3636 16.3196 61.2585 15.9247 61.054 15.5781C60.8494 15.2315 60.5682 14.9616 60.2102 14.7685C59.858 14.5696 59.4517 14.4702 58.9915 14.4702C58.5256 14.4702 58.108 14.5753 57.7386 14.7855C57.3693 14.9901 57.0767 15.2713 56.8608 15.6293C56.6449 15.9815 56.5312 16.3821 56.5199 16.831V19.294C56.5199 19.8281 56.625 20.2969 56.8352 20.7003C57.0455 21.098 57.3438 21.4077 57.7301 21.6293C58.1165 21.8509 58.5767 21.9616 59.1108 21.9616C59.4801 21.9616 59.8153 21.9105 60.1165 21.8082C60.4176 21.706 60.6761 21.5554 60.892 21.3565C61.108 21.1577 61.2699 20.9134 61.3778 20.6236L65.2045 20.7344C65.0455 21.5923 64.696 22.3395 64.1562 22.9759C63.6222 23.6065 62.9205 24.098 62.0511 24.4503C61.1818 24.7969 60.1761 24.9702 59.0341 24.9702Z" fill="white"/>
<path d="M78.8047 15.6293L74.978 15.7315C74.9382 15.4588 74.8303 15.2173 74.6541 15.0071C74.478 14.7912 74.2479 14.6236 73.9638 14.5043C73.6854 14.3793 73.3615 14.3168 72.9922 14.3168C72.5092 14.3168 72.0973 14.4134 71.7564 14.6065C71.4212 14.7997 71.2564 15.0611 71.2621 15.3906C71.2564 15.6463 71.3587 15.8679 71.5689 16.0554C71.7848 16.2429 72.1683 16.3935 72.7195 16.5071L75.2422 16.9844C76.549 17.2344 77.5206 17.6491 78.157 18.2287C78.799 18.8082 79.1229 19.5753 79.1286 20.5298C79.1229 21.4276 78.8558 22.2088 78.3274 22.8736C77.8047 23.5384 77.0888 24.0554 76.1797 24.4247C75.2706 24.7884 74.2308 24.9702 73.0604 24.9702C71.191 24.9702 69.7166 24.5867 68.6371 23.8196C67.5632 23.0469 66.9496 22.0128 66.7962 20.7173L70.9126 20.6151C71.0036 21.0923 71.2393 21.456 71.62 21.706C72.0007 21.956 72.4865 22.081 73.0774 22.081C73.6115 22.081 74.0462 21.9815 74.3814 21.7827C74.7166 21.5838 74.8871 21.3196 74.8928 20.9901C74.8871 20.6946 74.7564 20.4588 74.5007 20.2827C74.245 20.1009 73.8445 19.9588 73.299 19.8565L71.0149 19.4219C69.7024 19.1832 68.7251 18.7429 68.0831 18.1009C67.4411 17.4531 67.1229 16.6293 67.1286 15.6293C67.1229 14.7543 67.3558 14.0071 67.8274 13.3878C68.299 12.7628 68.9695 12.2855 69.8388 11.956C70.7081 11.6264 71.7337 11.4616 72.9155 11.4616C74.6882 11.4616 76.0859 11.8338 77.1087 12.5781C78.1314 13.3168 78.6967 14.3338 78.8047 15.6293Z" fill="white"/>
<path d="M88.5696 11.6321V14.7003H80.3111V11.6321H88.5696ZM82.0412 8.49574H86.2088V20.6065C86.2088 20.8622 86.2486 21.0696 86.3281 21.2287C86.4134 21.3821 86.5355 21.4929 86.6946 21.5611C86.8537 21.6236 87.044 21.6548 87.2656 21.6548C87.4247 21.6548 87.5923 21.6406 87.7685 21.6122C87.9503 21.5781 88.0866 21.5497 88.1776 21.527L88.8082 24.5355C88.6094 24.5923 88.3281 24.6634 87.9645 24.7486C87.6065 24.8338 87.1776 24.8878 86.6776 24.9105C85.7003 24.956 84.8622 24.8423 84.1634 24.5696C83.4702 24.2912 82.9389 23.8594 82.5696 23.2741C82.206 22.6889 82.0298 21.9531 82.0412 21.0668V8.49574Z" fill="white"/>
<path d="M106.54 13.5923H102.278C102.222 13.1548 102.105 12.7599 101.929 12.4077C101.753 12.0554 101.52 11.7543 101.23 11.5043C100.94 11.2543 100.597 11.0639 100.199 10.9332C99.8068 10.7969 99.3722 10.7287 98.8949 10.7287C98.0483 10.7287 97.3182 10.9361 96.7045 11.3509C96.0966 11.7656 95.6278 12.3651 95.2983 13.1491C94.9744 13.9332 94.8125 14.8821 94.8125 15.9957C94.8125 17.1548 94.9773 18.1264 95.3068 18.9105C95.642 19.6889 96.1108 20.277 96.7131 20.6747C97.321 21.0668 98.0398 21.2628 98.8693 21.2628C99.3352 21.2628 99.7585 21.2031 100.139 21.0838C100.526 20.9645 100.864 20.7912 101.153 20.5639C101.449 20.331 101.69 20.0497 101.878 19.7202C102.071 19.3849 102.205 19.0071 102.278 18.5866L106.54 18.6122C106.466 19.3849 106.241 20.1463 105.866 20.8963C105.497 21.6463 104.989 22.331 104.341 22.9503C103.693 23.5639 102.903 24.0526 101.972 24.4162C101.045 24.7798 99.983 24.9616 98.7841 24.9616C97.2045 24.9616 95.7898 24.6151 94.5398 23.9219C93.2955 23.223 92.3125 22.206 91.5909 20.8707C90.8693 19.5355 90.5085 17.9105 90.5085 15.9957C90.5085 14.0753 90.875 12.4474 91.608 11.1122C92.3409 9.77699 93.3324 8.76279 94.5824 8.0696C95.8324 7.37642 97.233 7.02983 98.7841 7.02983C99.8409 7.02983 100.818 7.17756 101.716 7.47301C102.614 7.76279 103.403 8.18892 104.085 8.75142C104.767 9.30824 105.321 9.9929 105.747 10.8054C106.173 11.6179 106.438 12.5469 106.54 13.5923Z" fill="white"/>
<path d="M117.4 19.0724V11.6321H121.559V24.723H117.587V22.2855H117.451C117.161 23.0866 116.667 23.723 115.968 24.1946C115.275 24.6605 114.437 24.8935 113.454 24.8935C112.562 24.8935 111.778 24.6889 111.102 24.2798C110.425 23.8707 109.9 23.2997 109.525 22.5668C109.15 21.8281 108.96 20.9645 108.954 19.9759V11.6321H113.121V19.1577C113.127 19.8679 113.315 20.4276 113.684 20.8366C114.053 21.2457 114.556 21.4503 115.192 21.4503C115.607 21.4503 115.979 21.3594 116.309 21.1776C116.644 20.9901 116.908 20.7202 117.102 20.3679C117.3 20.0099 117.4 19.5781 117.4 19.0724Z" fill="white"/>
<path d="M124.212 24.723V7.26847H128.379V13.8736H128.464C128.635 13.4759 128.876 13.0923 129.189 12.723C129.507 12.3537 129.911 12.0526 130.399 11.8196C130.893 11.581 131.484 11.4616 132.172 11.4616C133.081 11.4616 133.93 11.7003 134.72 12.1776C135.516 12.6548 136.158 13.3906 136.646 14.3849C137.135 15.3793 137.379 16.6463 137.379 18.1861C137.379 19.669 137.143 20.9105 136.672 21.9105C136.206 22.9105 135.575 23.6605 134.78 24.1605C133.99 24.6605 133.112 24.9105 132.146 24.9105C131.487 24.9105 130.916 24.8026 130.433 24.5866C129.95 24.3707 129.544 24.0866 129.214 23.7344C128.891 23.3821 128.641 23.0043 128.464 22.6009H128.337V24.723H124.212ZM128.294 18.1776C128.294 18.8821 128.388 19.4957 128.575 20.0185C128.768 20.5412 129.044 20.9474 129.402 21.2372C129.766 21.5213 130.2 21.6634 130.706 21.6634C131.217 21.6634 131.652 21.5213 132.01 21.2372C132.368 20.9474 132.638 20.5412 132.82 20.0185C133.007 19.4957 133.101 18.8821 133.101 18.1776C133.101 17.473 133.007 16.8622 132.82 16.3452C132.638 15.8281 132.368 15.4276 132.01 15.1435C131.658 14.8594 131.223 14.7173 130.706 14.7173C130.195 14.7173 129.76 14.8565 129.402 15.1349C129.044 15.4134 128.768 15.8111 128.575 16.3281C128.388 16.8452 128.294 17.4616 128.294 18.1776Z" fill="white"/>
<path d="M145.683 24.9702C144.313 24.9702 143.131 24.7003 142.137 24.1605C141.148 23.6151 140.387 22.8395 139.853 21.8338C139.325 20.8224 139.06 19.6207 139.06 18.2287C139.06 16.8764 139.327 15.6946 139.862 14.6832C140.396 13.6662 141.148 12.8764 142.12 12.3139C143.092 11.7457 144.237 11.4616 145.555 11.4616C146.487 11.4616 147.339 11.6065 148.112 11.8963C148.884 12.1861 149.552 12.6151 150.114 13.1832C150.677 13.7514 151.114 14.4531 151.427 15.2884C151.739 16.1179 151.896 17.0696 151.896 18.1435V19.1832H140.518V16.7628H148.018C148.012 16.3196 147.907 15.9247 147.702 15.5781C147.498 15.2315 147.217 14.9616 146.859 14.7685C146.506 14.5696 146.1 14.4702 145.64 14.4702C145.174 14.4702 144.756 14.5753 144.387 14.7855C144.018 14.9901 143.725 15.2713 143.509 15.6293C143.293 15.9815 143.18 16.3821 143.168 16.831V19.294C143.168 19.8281 143.273 20.2969 143.484 20.7003C143.694 21.098 143.992 21.4077 144.379 21.6293C144.765 21.8509 145.225 21.9616 145.759 21.9616C146.129 21.9616 146.464 21.9105 146.765 21.8082C147.066 21.706 147.325 21.5554 147.54 21.3565C147.756 21.1577 147.918 20.9134 148.026 20.6236L151.853 20.7344C151.694 21.5923 151.344 22.3395 150.805 22.9759C150.271 23.6065 149.569 24.098 148.7 24.4503C147.83 24.7969 146.825 24.9702 145.683 24.9702Z" fill="white"/>
</svg>
